<mxfile host="Electron" agent="Mozilla/5.0 (Windows NT 10.0; Win64; x64) AppleWebKit/537.36 (KHTML, like Gecko) draw.io/26.0.15 Chrome/132.0.6834.196 Electron/34.2.0 Safari/537.36" version="26.0.15">
  <diagram name="Página-1" id="BWLcb8puxV5DTwIUHzVU">
    <mxGraphModel dx="1674" dy="1004" grid="1" gridSize="10" guides="1" tooltips="1" connect="1" arrows="1" fold="1" page="1" pageScale="1" pageWidth="827" pageHeight="1169" math="0" shadow="0">
      <root>
        <mxCell id="0" />
        <mxCell id="1" parent="0" />
        <mxCell id="GLWFyRu11YgeHEWjvj1F-12" style="edgeStyle=orthogonalEdgeStyle;rounded=0;orthogonalLoop=1;jettySize=auto;html=1;entryX=0;entryY=0.5;entryDx=0;entryDy=0;" edge="1" parent="1" source="TPlRJoIPfdAI7P-bpLI3-1" target="GLWFyRu11YgeHEWjvj1F-3">
          <mxGeometry relative="1" as="geometry" />
        </mxCell>
        <mxCell id="GLWFyRu11YgeHEWjvj1F-13" style="edgeStyle=orthogonalEdgeStyle;rounded=0;orthogonalLoop=1;jettySize=auto;html=1;entryX=0;entryY=0.5;entryDx=0;entryDy=0;" edge="1" parent="1" source="TPlRJoIPfdAI7P-bpLI3-1" target="GLWFyRu11YgeHEWjvj1F-10">
          <mxGeometry relative="1" as="geometry" />
        </mxCell>
        <mxCell id="TPlRJoIPfdAI7P-bpLI3-1" value="Usuario&lt;div&gt;&lt;br&gt;&lt;/div&gt;" style="shape=umlActor;verticalLabelPosition=bottom;verticalAlign=top;html=1;outlineConnect=0;" parent="1" vertex="1">
          <mxGeometry x="20" y="490" width="30" height="60" as="geometry" />
        </mxCell>
        <mxCell id="TPlRJoIPfdAI7P-bpLI3-2" value="Eliminar informe" style="ellipse;whiteSpace=wrap;html=1;" parent="1" vertex="1">
          <mxGeometry x="360" y="370" width="140" height="70" as="geometry" />
        </mxCell>
        <mxCell id="TPlRJoIPfdAI7P-bpLI3-3" value="Añadir informe" style="ellipse;whiteSpace=wrap;html=1;" parent="1" vertex="1">
          <mxGeometry x="360" y="250" width="140" height="70" as="geometry" />
        </mxCell>
        <mxCell id="TPlRJoIPfdAI7P-bpLI3-4" value="Consultar informe" style="ellipse;whiteSpace=wrap;html=1;" parent="1" vertex="1">
          <mxGeometry x="360" y="480" width="140" height="70" as="geometry" />
        </mxCell>
        <mxCell id="TPlRJoIPfdAI7P-bpLI3-5" value="Modificar informe" style="ellipse;whiteSpace=wrap;html=1;" parent="1" vertex="1">
          <mxGeometry x="620" y="515" width="140" height="70" as="geometry" />
        </mxCell>
        <mxCell id="TPlRJoIPfdAI7P-bpLI3-13" value="&amp;lt;&amp;lt;extend&amp;gt;&amp;gt;" style="endArrow=open;endSize=12;dashed=1;html=1;rounded=0;exitX=0;exitY=0.5;exitDx=0;exitDy=0;entryX=1;entryY=1;entryDx=0;entryDy=0;" parent="1" source="TPlRJoIPfdAI7P-bpLI3-5" target="TPlRJoIPfdAI7P-bpLI3-4" edge="1">
          <mxGeometry width="160" relative="1" as="geometry">
            <mxPoint x="330" y="510" as="sourcePoint" />
            <mxPoint x="490" y="510" as="targetPoint" />
          </mxGeometry>
        </mxCell>
        <mxCell id="TPlRJoIPfdAI7P-bpLI3-16" value="Base de datos&lt;div&gt;&lt;br&gt;&lt;/div&gt;" style="shape=umlActor;verticalLabelPosition=bottom;verticalAlign=top;html=1;outlineConnect=0;" parent="1" vertex="1">
          <mxGeometry x="610" y="340" width="30" height="60" as="geometry" />
        </mxCell>
        <mxCell id="GLWFyRu11YgeHEWjvj1F-3" value="Iniciar sesion" style="ellipse;whiteSpace=wrap;html=1;" vertex="1" parent="1">
          <mxGeometry x="130" y="370" width="140" height="70" as="geometry" />
        </mxCell>
        <mxCell id="GLWFyRu11YgeHEWjvj1F-4" value="&amp;lt;&amp;lt;include&amp;gt;&amp;gt;" style="html=1;verticalAlign=bottom;labelBackgroundColor=none;endArrow=open;endFill=0;dashed=1;rounded=0;exitX=0.5;exitY=0;exitDx=0;exitDy=0;entryX=0;entryY=0.5;entryDx=0;entryDy=0;" edge="1" parent="1" source="GLWFyRu11YgeHEWjvj1F-3" target="TPlRJoIPfdAI7P-bpLI3-3">
          <mxGeometry width="160" relative="1" as="geometry">
            <mxPoint x="330" y="510" as="sourcePoint" />
            <mxPoint x="300" y="370" as="targetPoint" />
          </mxGeometry>
        </mxCell>
        <mxCell id="GLWFyRu11YgeHEWjvj1F-5" value="&amp;lt;&amp;lt;include&amp;gt;&amp;gt;" style="html=1;verticalAlign=bottom;labelBackgroundColor=none;endArrow=open;endFill=0;dashed=1;rounded=0;exitX=1;exitY=0.5;exitDx=0;exitDy=0;entryX=0;entryY=0.5;entryDx=0;entryDy=0;" edge="1" parent="1" source="GLWFyRu11YgeHEWjvj1F-3" target="TPlRJoIPfdAI7P-bpLI3-2">
          <mxGeometry width="160" relative="1" as="geometry">
            <mxPoint x="340" y="520" as="sourcePoint" />
            <mxPoint x="500" y="520" as="targetPoint" />
          </mxGeometry>
        </mxCell>
        <mxCell id="GLWFyRu11YgeHEWjvj1F-6" value="&amp;lt;&amp;lt;include&amp;gt;&amp;gt;" style="html=1;verticalAlign=bottom;labelBackgroundColor=none;endArrow=open;endFill=0;dashed=1;rounded=0;exitX=0.5;exitY=1;exitDx=0;exitDy=0;entryX=0;entryY=0.5;entryDx=0;entryDy=0;" edge="1" parent="1" source="GLWFyRu11YgeHEWjvj1F-3" target="TPlRJoIPfdAI7P-bpLI3-4">
          <mxGeometry width="160" relative="1" as="geometry">
            <mxPoint x="350" y="530" as="sourcePoint" />
            <mxPoint x="510" y="530" as="targetPoint" />
          </mxGeometry>
        </mxCell>
        <mxCell id="GLWFyRu11YgeHEWjvj1F-7" style="edgeStyle=orthogonalEdgeStyle;rounded=0;orthogonalLoop=1;jettySize=auto;html=1;entryX=0;entryY=0.3333333333333333;entryDx=0;entryDy=0;entryPerimeter=0;" edge="1" parent="1" source="TPlRJoIPfdAI7P-bpLI3-3" target="TPlRJoIPfdAI7P-bpLI3-16">
          <mxGeometry relative="1" as="geometry" />
        </mxCell>
        <mxCell id="GLWFyRu11YgeHEWjvj1F-8" style="edgeStyle=orthogonalEdgeStyle;rounded=0;orthogonalLoop=1;jettySize=auto;html=1;entryX=0;entryY=0.3333333333333333;entryDx=0;entryDy=0;entryPerimeter=0;" edge="1" parent="1" source="TPlRJoIPfdAI7P-bpLI3-2" target="TPlRJoIPfdAI7P-bpLI3-16">
          <mxGeometry relative="1" as="geometry" />
        </mxCell>
        <mxCell id="GLWFyRu11YgeHEWjvj1F-9" style="edgeStyle=orthogonalEdgeStyle;rounded=0;orthogonalLoop=1;jettySize=auto;html=1;entryX=0;entryY=0.3333333333333333;entryDx=0;entryDy=0;entryPerimeter=0;" edge="1" parent="1" source="TPlRJoIPfdAI7P-bpLI3-4" target="TPlRJoIPfdAI7P-bpLI3-16">
          <mxGeometry relative="1" as="geometry" />
        </mxCell>
        <mxCell id="GLWFyRu11YgeHEWjvj1F-10" value="Ver informacion" style="ellipse;whiteSpace=wrap;html=1;" vertex="1" parent="1">
          <mxGeometry x="150" y="580" width="140" height="70" as="geometry" />
        </mxCell>
        <mxCell id="GLWFyRu11YgeHEWjvj1F-11" value="Ver videos" style="ellipse;whiteSpace=wrap;html=1;" vertex="1" parent="1">
          <mxGeometry x="400" y="590" width="140" height="70" as="geometry" />
        </mxCell>
        <mxCell id="GLWFyRu11YgeHEWjvj1F-14" value="&amp;lt;&amp;lt;extend&amp;gt;&amp;gt;" style="html=1;verticalAlign=bottom;labelBackgroundColor=none;endArrow=open;endFill=0;dashed=1;rounded=0;exitX=0;exitY=0.5;exitDx=0;exitDy=0;entryX=1;entryY=0.5;entryDx=0;entryDy=0;" edge="1" parent="1" source="GLWFyRu11YgeHEWjvj1F-11" target="GLWFyRu11YgeHEWjvj1F-10">
          <mxGeometry width="160" relative="1" as="geometry">
            <mxPoint x="330" y="510" as="sourcePoint" />
            <mxPoint x="490" y="510" as="targetPoint" />
          </mxGeometry>
        </mxCell>
      </root>
    </mxGraphModel>
  </diagram>
</mxfile>
